<svg xmlns="http://www.w3.org/2000/svg" xmlns:xlink="http://www.w3.org/1999/xlink" viewBox="0 0 44.74 41"><defs><style>.cls-1{fill:url(#linear-gradient);}.cls-2{fill:#bc2222;}.cls-3{fill:#fff;stroke-miterlimit:10;stroke-width:4px;stroke:url(#radial-gradient);}</style><linearGradient id="linear-gradient" x1="18.09" y1="46.45" x2="39.16" y2="25.38" gradientUnits="userSpaceOnUse"><stop offset="0"/><stop offset="1" stop-color="#fff" stop-opacity="0"/></linearGradient><radialGradient id="radial-gradient" cx="12.5" cy="13" r="7.5" gradientUnits="userSpaceOnUse"><stop offset="0" stop-color="#faeded" stop-opacity="0.03"/><stop offset="0.32" stop-color="#bc2222" stop-opacity="0.5"/><stop offset="0.6" stop-color="#c1272d" stop-opacity="0.8"/><stop offset="0.86" stop-color="#bc2222"/></radialGradient></defs><title>pin@1x</title><g id="Layer_2" data-name="Layer 2"><g id="Layer_1-2" data-name="Layer 1"><path class="cls-1" d="M40.82,36.38c4.9-2.09,5.26-5.65.8-7.95s-12-2.47-17-.37l-.25.12a14.35,14.35,0,0,0-4.33,2.62c-2.11,1.87-6.84,9-7.46,10l-.15.07h.12l0,.05.15-.07c2.08-.2,17.7-1.73,21.87-2.54a27.17,27.17,0,0,0,6-1.77ZM28.88,33.9c-1.78-.92-1.64-2.34.32-3.18a9,9,0,0,1,6.78.15c1.78.92,1.64,2.34-.32,3.18A9,9,0,0,1,28.88,33.9Z"/><path class="cls-2" d="M25,12.5a12.5,12.5,0,0,0-25,0c0,.13,0,.25,0,.38a19.42,19.42,0,0,0,1.27,7.25c1.59,4.43,10,18.75,11.15,20.66V41l.06-.11.06.11v-.21c1.13-1.9,9.56-16.23,11.15-20.66A19.42,19.42,0,0,0,25,12.88C25,12.75,25,12.63,25,12.5ZM12.56,18a5,5,0,1,1,5-5A5,5,0,0,1,12.56,18Z"/><circle class="cls-3" cx="12.5" cy="13" r="5.5"/></g></g></svg>